<mxfile host="app.diagrams.net" modified="2022-04-03T08:27:50.079Z" agent="5.0 (Windows)" etag="GMueakYmEE360xCLDRG9" version="17.4.0" type="github" pages="3">
  <diagram id="HIR_HnuRfsgComKwelWx" name="Stage 1">
    <mxGraphModel dx="1422" dy="775" grid="1" gridSize="10" guides="1" tooltips="1" connect="1" arrows="1" fold="1" page="1" pageScale="1" pageWidth="850" pageHeight="1100" math="0" shadow="0">
      <root>
        <mxCell id="0" />
        <mxCell id="1" parent="0" />
        <mxCell id="l8HL2dyl0HHNFjh2lQPh-7" style="edgeStyle=orthogonalEdgeStyle;rounded=0;orthogonalLoop=1;jettySize=auto;html=1;" parent="1" source="l8HL2dyl0HHNFjh2lQPh-2" target="l8HL2dyl0HHNFjh2lQPh-4" edge="1">
          <mxGeometry relative="1" as="geometry">
            <Array as="points">
              <mxPoint x="390" y="160" />
              <mxPoint x="390" y="160" />
            </Array>
          </mxGeometry>
        </mxCell>
        <mxCell id="l8HL2dyl0HHNFjh2lQPh-2" value="&lt;div&gt;Client&lt;/div&gt;" style="shape=umlLifeline;participant=umlActor;perimeter=lifelinePerimeter;whiteSpace=wrap;html=1;container=1;collapsible=0;recursiveResize=0;verticalAlign=bottom;spacingTop=36;outlineConnect=0;labelPosition=center;verticalLabelPosition=top;align=center;" parent="1" vertex="1">
          <mxGeometry x="710" y="80" width="20" height="300" as="geometry" />
        </mxCell>
        <mxCell id="l8HL2dyl0HHNFjh2lQPh-8" style="edgeStyle=orthogonalEdgeStyle;rounded=0;orthogonalLoop=1;jettySize=auto;html=1;" parent="1" source="l8HL2dyl0HHNFjh2lQPh-4" target="l8HL2dyl0HHNFjh2lQPh-2" edge="1">
          <mxGeometry relative="1" as="geometry">
            <Array as="points">
              <mxPoint x="160" y="240" />
              <mxPoint x="160" y="240" />
            </Array>
          </mxGeometry>
        </mxCell>
        <mxCell id="l8HL2dyl0HHNFjh2lQPh-4" value="&lt;div&gt;Server&lt;/div&gt;&lt;div&gt;&lt;br&gt;&lt;/div&gt;" style="shape=umlLifeline;participant=umlEntity;perimeter=lifelinePerimeter;whiteSpace=wrap;html=1;container=1;collapsible=0;recursiveResize=0;verticalAlign=bottom;spacingTop=36;outlineConnect=0;labelPosition=center;verticalLabelPosition=top;align=center;" parent="1" vertex="1">
          <mxGeometry x="60" y="80" width="40" height="300" as="geometry" />
        </mxCell>
        <mxCell id="l8HL2dyl0HHNFjh2lQPh-9" value="Fully Encrypted Request" style="text;html=1;align=center;verticalAlign=middle;resizable=0;points=[];autosize=1;strokeColor=none;fillColor=none;" parent="1" vertex="1">
          <mxGeometry x="550" y="130" width="150" height="20" as="geometry" />
        </mxCell>
        <mxCell id="l8HL2dyl0HHNFjh2lQPh-10" value="Fully Encrypted Response" style="text;html=1;align=center;verticalAlign=middle;resizable=0;points=[];autosize=1;strokeColor=none;fillColor=none;" parent="1" vertex="1">
          <mxGeometry x="170" y="210" width="160" height="20" as="geometry" />
        </mxCell>
        <mxCell id="l8HL2dyl0HHNFjh2lQPh-11" value="" style="outlineConnect=0;dashed=0;verticalLabelPosition=bottom;verticalAlign=top;align=center;html=1;shape=mxgraph.aws3.data_encryption_key;fillColor=#7D7C7C;gradientColor=none;" parent="1" vertex="1">
          <mxGeometry x="513.5" y="120" width="36.5" height="40" as="geometry" />
        </mxCell>
        <mxCell id="l8HL2dyl0HHNFjh2lQPh-12" value="" style="outlineConnect=0;dashed=0;verticalLabelPosition=bottom;verticalAlign=top;align=center;html=1;shape=mxgraph.aws3.data_encryption_key;fillColor=#7D7C7C;gradientColor=none;" parent="1" vertex="1">
          <mxGeometry x="120" y="200" width="36.5" height="40" as="geometry" />
        </mxCell>
        <mxCell id="1U_oL4lZ3bxaXQujuD8t-1" value="&lt;div style=&quot;font-size: 16px&quot; align=&quot;left&quot;&gt;&lt;u&gt;&lt;b&gt;Outcomes&lt;/b&gt;&lt;/u&gt;: &lt;br style=&quot;font-size: 16px&quot;&gt;&lt;/div&gt;&lt;div style=&quot;font-size: 16px&quot; align=&quot;left&quot;&gt;1- just the predefined clients will be able to use my web API&lt;/div&gt;&lt;div style=&quot;font-size: 16px&quot; align=&quot;left&quot;&gt;2- if the connection not secure no one will be able to understand the messages if intercepted&lt;/div&gt;&lt;div style=&quot;font-size: 16px&quot; align=&quot;left&quot;&gt;3- also if the connection is HTTPS, also may be intercepted and readable by installing HTTPS on the victim client,&lt;/div&gt;&lt;div style=&quot;font-size: 16px&quot; align=&quot;left&quot;&gt;&amp;nbsp;but our encryption can be another level of security&lt;br style=&quot;font-size: 16px&quot;&gt;&lt;/div&gt;" style="text;html=1;align=left;verticalAlign=middle;resizable=0;points=[];autosize=1;strokeColor=none;fillColor=none;fontSize=16;" parent="1" vertex="1">
          <mxGeometry x="20" y="460" width="820" height="100" as="geometry" />
        </mxCell>
        <mxCell id="BuIUNsW2k5ILZM9H9ihh-1" value="End-to-End Web API Encryption" style="text;html=1;align=center;verticalAlign=middle;resizable=0;points=[];autosize=1;strokeColor=none;fillColor=none;fontStyle=1;fontSize=20;" vertex="1" parent="1">
          <mxGeometry x="220" y="20" width="320" height="30" as="geometry" />
        </mxCell>
      </root>
    </mxGraphModel>
  </diagram>
  <diagram id="WWoqVtw5fzymllLJ7aHS" name="Symetric vs Asymetric">
    <mxGraphModel dx="1422" dy="775" grid="1" gridSize="10" guides="1" tooltips="1" connect="1" arrows="1" fold="1" page="1" pageScale="1" pageWidth="850" pageHeight="1100" math="0" shadow="0">
      <root>
        <mxCell id="0" />
        <mxCell id="1" parent="0" />
        <mxCell id="Mzsdl2vQxE1lh_2rMJa2-1" value="" style="aspect=fixed;perimeter=ellipsePerimeter;html=1;align=center;shadow=0;dashed=0;spacingTop=3;image;image=img/lib/active_directory/key.svg;sketch=0;" parent="1" vertex="1">
          <mxGeometry x="752.5" y="126" width="50" height="37" as="geometry" />
        </mxCell>
        <mxCell id="Mzsdl2vQxE1lh_2rMJa2-2" value="" style="aspect=fixed;perimeter=ellipsePerimeter;html=1;align=center;shadow=0;dashed=0;spacingTop=3;image;image=img/lib/active_directory/key.svg;imageBackground=#33FF33;" parent="1" vertex="1">
          <mxGeometry x="80" y="121.5" width="50" height="37" as="geometry" />
        </mxCell>
        <mxCell id="Mzsdl2vQxE1lh_2rMJa2-3" value="" style="aspect=fixed;perimeter=ellipsePerimeter;html=1;align=center;shadow=0;dashed=0;spacingTop=3;image;image=img/lib/active_directory/key.svg;imageBackground=#FF0000;" parent="1" vertex="1">
          <mxGeometry x="80" y="180" width="50" height="37" as="geometry" />
        </mxCell>
        <mxCell id="Mzsdl2vQxE1lh_2rMJa2-4" value="symmetric encryption" style="text;whiteSpace=wrap;html=1;fontSize=19;fontStyle=1" parent="1" vertex="1">
          <mxGeometry x="660.5" y="10" width="215" height="30" as="geometry" />
        </mxCell>
        <mxCell id="Mzsdl2vQxE1lh_2rMJa2-5" value="Asymmetric encryption" style="text;whiteSpace=wrap;html=1;fontSize=19;fontStyle=1" parent="1" vertex="1">
          <mxGeometry x="135" y="10" width="250" height="30" as="geometry" />
        </mxCell>
        <mxCell id="Mzsdl2vQxE1lh_2rMJa2-6" value="One Key -- Session Key" style="text;html=1;align=center;verticalAlign=middle;resizable=0;points=[];autosize=1;strokeColor=none;fillColor=none;" parent="1" vertex="1">
          <mxGeometry x="700" y="90" width="140" height="20" as="geometry" />
        </mxCell>
        <mxCell id="Mzsdl2vQxE1lh_2rMJa2-7" value="Two Keys" style="text;html=1;align=center;verticalAlign=middle;resizable=0;points=[];autosize=1;strokeColor=none;fillColor=none;fontSize=12;" parent="1" vertex="1">
          <mxGeometry x="160" y="90" width="70" height="20" as="geometry" />
        </mxCell>
        <mxCell id="Mzsdl2vQxE1lh_2rMJa2-8" value="Public Key : used to encrypt data" style="text;html=1;align=center;verticalAlign=middle;resizable=0;points=[];autosize=1;strokeColor=none;fillColor=none;fontSize=12;" parent="1" vertex="1">
          <mxGeometry x="145" y="130" width="190" height="20" as="geometry" />
        </mxCell>
        <mxCell id="Mzsdl2vQxE1lh_2rMJa2-9" value="private Key : used to decrypt data" style="text;html=1;align=center;verticalAlign=middle;resizable=0;points=[];autosize=1;strokeColor=none;fillColor=none;fontSize=12;" parent="1" vertex="1">
          <mxGeometry x="145" y="188.5" width="190" height="20" as="geometry" />
        </mxCell>
        <mxCell id="Mzsdl2vQxE1lh_2rMJa2-10" value="Used to encrypt and decrypt the data" style="text;html=1;align=center;verticalAlign=middle;resizable=0;points=[];autosize=1;strokeColor=none;fillColor=none;fontSize=12;" parent="1" vertex="1">
          <mxGeometry x="672.5" y="188.5" width="210" height="20" as="geometry" />
        </mxCell>
        <mxCell id="Mzsdl2vQxE1lh_2rMJa2-21" style="edgeStyle=orthogonalEdgeStyle;rounded=0;orthogonalLoop=1;jettySize=auto;html=1;fontSize=12;" parent="1" source="Mzsdl2vQxE1lh_2rMJa2-11" target="Mzsdl2vQxE1lh_2rMJa2-14" edge="1">
          <mxGeometry relative="1" as="geometry" />
        </mxCell>
        <mxCell id="Mzsdl2vQxE1lh_2rMJa2-11" value="" style="sketch=0;pointerEvents=1;shadow=0;dashed=0;html=1;strokeColor=none;fillColor=#505050;labelPosition=center;verticalLabelPosition=bottom;verticalAlign=top;outlineConnect=0;align=center;shape=mxgraph.office.security.lock_with_key_security;fontSize=12;" parent="1" vertex="1">
          <mxGeometry x="130" y="305" width="47" height="58" as="geometry" />
        </mxCell>
        <mxCell id="Mzsdl2vQxE1lh_2rMJa2-23" style="edgeStyle=orthogonalEdgeStyle;rounded=0;orthogonalLoop=1;jettySize=auto;html=1;fontSize=12;" parent="1" source="Mzsdl2vQxE1lh_2rMJa2-12" target="Mzsdl2vQxE1lh_2rMJa2-15" edge="1">
          <mxGeometry relative="1" as="geometry" />
        </mxCell>
        <mxCell id="Mzsdl2vQxE1lh_2rMJa2-12" value="" style="sketch=0;pointerEvents=1;shadow=0;dashed=0;html=1;strokeColor=none;fillColor=#505050;labelPosition=center;verticalLabelPosition=bottom;verticalAlign=top;outlineConnect=0;align=center;shape=mxgraph.office.security.lock_unprotected;fontSize=12;" parent="1" vertex="1">
          <mxGeometry x="310" y="310" width="40" height="48" as="geometry" />
        </mxCell>
        <mxCell id="Mzsdl2vQxE1lh_2rMJa2-20" style="edgeStyle=orthogonalEdgeStyle;rounded=0;orthogonalLoop=1;jettySize=auto;html=1;fontSize=12;" parent="1" source="Mzsdl2vQxE1lh_2rMJa2-13" target="Mzsdl2vQxE1lh_2rMJa2-11" edge="1">
          <mxGeometry relative="1" as="geometry" />
        </mxCell>
        <mxCell id="Mzsdl2vQxE1lh_2rMJa2-13" value="Plain text" style="shape=image;html=1;verticalAlign=top;verticalLabelPosition=bottom;labelBackgroundColor=#ffffff;imageAspect=0;aspect=fixed;image=https://cdn0.iconfinder.com/data/icons/octicons/1024/file-text-128.png;sketch=0;fontSize=12;" parent="1" vertex="1">
          <mxGeometry x="22" y="305" width="58" height="58" as="geometry" />
        </mxCell>
        <mxCell id="Mzsdl2vQxE1lh_2rMJa2-22" style="edgeStyle=orthogonalEdgeStyle;rounded=0;orthogonalLoop=1;jettySize=auto;html=1;fontSize=12;" parent="1" source="Mzsdl2vQxE1lh_2rMJa2-14" target="Mzsdl2vQxE1lh_2rMJa2-12" edge="1">
          <mxGeometry relative="1" as="geometry" />
        </mxCell>
        <mxCell id="Mzsdl2vQxE1lh_2rMJa2-14" value="Cipher text" style="shape=image;html=1;verticalAlign=top;verticalLabelPosition=bottom;labelBackgroundColor=#ffffff;imageAspect=0;aspect=fixed;image=https://cdn0.iconfinder.com/data/icons/octicons/1024/file-text-128.png;sketch=0;fontSize=12;" parent="1" vertex="1">
          <mxGeometry x="211" y="305" width="58" height="58" as="geometry" />
        </mxCell>
        <mxCell id="Mzsdl2vQxE1lh_2rMJa2-15" value="Plain Text" style="shape=image;html=1;verticalAlign=top;verticalLabelPosition=bottom;labelBackgroundColor=#ffffff;imageAspect=0;aspect=fixed;image=https://cdn0.iconfinder.com/data/icons/octicons/1024/file-text-128.png;sketch=0;fontSize=12;" parent="1" vertex="1">
          <mxGeometry x="390" y="305" width="58" height="58" as="geometry" />
        </mxCell>
        <mxCell id="Mzsdl2vQxE1lh_2rMJa2-18" style="edgeStyle=orthogonalEdgeStyle;rounded=0;orthogonalLoop=1;jettySize=auto;html=1;fontSize=12;" parent="1" target="Mzsdl2vQxE1lh_2rMJa2-11" edge="1">
          <mxGeometry relative="1" as="geometry">
            <mxPoint x="154" y="460" as="sourcePoint" />
          </mxGeometry>
        </mxCell>
        <mxCell id="Mzsdl2vQxE1lh_2rMJa2-16" value="" style="aspect=fixed;perimeter=ellipsePerimeter;html=1;align=center;shadow=0;dashed=0;spacingTop=3;image;image=img/lib/active_directory/key.svg;imageBackground=#33FF33;" parent="1" vertex="1">
          <mxGeometry x="127" y="450" width="50" height="37" as="geometry" />
        </mxCell>
        <mxCell id="Mzsdl2vQxE1lh_2rMJa2-19" style="edgeStyle=orthogonalEdgeStyle;rounded=0;orthogonalLoop=1;jettySize=auto;html=1;fontSize=12;" parent="1" source="Mzsdl2vQxE1lh_2rMJa2-17" edge="1">
          <mxGeometry relative="1" as="geometry">
            <mxPoint x="330" y="360" as="targetPoint" />
            <Array as="points">
              <mxPoint x="330" y="360" />
            </Array>
          </mxGeometry>
        </mxCell>
        <mxCell id="Mzsdl2vQxE1lh_2rMJa2-17" value="" style="aspect=fixed;perimeter=ellipsePerimeter;html=1;align=center;shadow=0;dashed=0;spacingTop=3;image;image=img/lib/active_directory/key.svg;imageBackground=#FF0000;" parent="1" vertex="1">
          <mxGeometry x="305" y="450" width="50" height="37" as="geometry" />
        </mxCell>
        <mxCell id="Mzsdl2vQxE1lh_2rMJa2-24" value="&lt;div&gt;Encrypt the data &lt;br&gt;&lt;/div&gt;&lt;div&gt;using public key&lt;/div&gt;" style="text;html=1;align=center;verticalAlign=middle;resizable=0;points=[];autosize=1;strokeColor=none;fillColor=none;fontSize=12;" parent="1" vertex="1">
          <mxGeometry x="102" y="495" width="100" height="30" as="geometry" />
        </mxCell>
        <mxCell id="Mzsdl2vQxE1lh_2rMJa2-25" value="&lt;div&gt;Decrypt the data &lt;br&gt;&lt;/div&gt;&lt;div&gt;using private key&lt;/div&gt;" style="text;html=1;align=center;verticalAlign=middle;resizable=0;points=[];autosize=1;strokeColor=none;fillColor=none;fontSize=12;" parent="1" vertex="1">
          <mxGeometry x="275" y="495" width="110" height="30" as="geometry" />
        </mxCell>
        <mxCell id="Mzsdl2vQxE1lh_2rMJa2-26" style="edgeStyle=orthogonalEdgeStyle;rounded=0;orthogonalLoop=1;jettySize=auto;html=1;fontSize=12;" parent="1" source="Mzsdl2vQxE1lh_2rMJa2-27" target="Mzsdl2vQxE1lh_2rMJa2-33" edge="1">
          <mxGeometry relative="1" as="geometry" />
        </mxCell>
        <mxCell id="Mzsdl2vQxE1lh_2rMJa2-27" value="" style="sketch=0;pointerEvents=1;shadow=0;dashed=0;html=1;strokeColor=none;fillColor=#505050;labelPosition=center;verticalLabelPosition=bottom;verticalAlign=top;outlineConnect=0;align=center;shape=mxgraph.office.security.lock_with_key_security;fontSize=12;" parent="1" vertex="1">
          <mxGeometry x="658" y="305" width="47" height="58" as="geometry" />
        </mxCell>
        <mxCell id="Mzsdl2vQxE1lh_2rMJa2-28" style="edgeStyle=orthogonalEdgeStyle;rounded=0;orthogonalLoop=1;jettySize=auto;html=1;fontSize=12;" parent="1" source="Mzsdl2vQxE1lh_2rMJa2-29" target="Mzsdl2vQxE1lh_2rMJa2-34" edge="1">
          <mxGeometry relative="1" as="geometry" />
        </mxCell>
        <mxCell id="Mzsdl2vQxE1lh_2rMJa2-29" value="" style="sketch=0;pointerEvents=1;shadow=0;dashed=0;html=1;strokeColor=none;fillColor=#505050;labelPosition=center;verticalLabelPosition=bottom;verticalAlign=top;outlineConnect=0;align=center;shape=mxgraph.office.security.lock_unprotected;fontSize=12;" parent="1" vertex="1">
          <mxGeometry x="838" y="310" width="40" height="48" as="geometry" />
        </mxCell>
        <mxCell id="Mzsdl2vQxE1lh_2rMJa2-30" style="edgeStyle=orthogonalEdgeStyle;rounded=0;orthogonalLoop=1;jettySize=auto;html=1;fontSize=12;" parent="1" source="Mzsdl2vQxE1lh_2rMJa2-31" target="Mzsdl2vQxE1lh_2rMJa2-27" edge="1">
          <mxGeometry relative="1" as="geometry" />
        </mxCell>
        <mxCell id="Mzsdl2vQxE1lh_2rMJa2-31" value="Plain text" style="shape=image;html=1;verticalAlign=top;verticalLabelPosition=bottom;labelBackgroundColor=#ffffff;imageAspect=0;aspect=fixed;image=https://cdn0.iconfinder.com/data/icons/octicons/1024/file-text-128.png;sketch=0;fontSize=12;" parent="1" vertex="1">
          <mxGeometry x="550" y="305" width="58" height="58" as="geometry" />
        </mxCell>
        <mxCell id="Mzsdl2vQxE1lh_2rMJa2-32" style="edgeStyle=orthogonalEdgeStyle;rounded=0;orthogonalLoop=1;jettySize=auto;html=1;fontSize=12;" parent="1" source="Mzsdl2vQxE1lh_2rMJa2-33" target="Mzsdl2vQxE1lh_2rMJa2-29" edge="1">
          <mxGeometry relative="1" as="geometry" />
        </mxCell>
        <mxCell id="Mzsdl2vQxE1lh_2rMJa2-33" value="Cipher text" style="shape=image;html=1;verticalAlign=top;verticalLabelPosition=bottom;labelBackgroundColor=#ffffff;imageAspect=0;aspect=fixed;image=https://cdn0.iconfinder.com/data/icons/octicons/1024/file-text-128.png;sketch=0;fontSize=12;" parent="1" vertex="1">
          <mxGeometry x="739" y="305" width="58" height="58" as="geometry" />
        </mxCell>
        <mxCell id="Mzsdl2vQxE1lh_2rMJa2-34" value="Plain Text" style="shape=image;html=1;verticalAlign=top;verticalLabelPosition=bottom;labelBackgroundColor=#ffffff;imageAspect=0;aspect=fixed;image=https://cdn0.iconfinder.com/data/icons/octicons/1024/file-text-128.png;sketch=0;fontSize=12;" parent="1" vertex="1">
          <mxGeometry x="918" y="305" width="58" height="58" as="geometry" />
        </mxCell>
        <mxCell id="Mzsdl2vQxE1lh_2rMJa2-36" style="edgeStyle=orthogonalEdgeStyle;rounded=0;orthogonalLoop=1;jettySize=auto;html=1;exitX=0;exitY=0.5;exitDx=0;exitDy=0;fontSize=12;" parent="1" source="Mzsdl2vQxE1lh_2rMJa2-35" target="Mzsdl2vQxE1lh_2rMJa2-27" edge="1">
          <mxGeometry relative="1" as="geometry" />
        </mxCell>
        <mxCell id="Mzsdl2vQxE1lh_2rMJa2-37" style="edgeStyle=orthogonalEdgeStyle;rounded=0;orthogonalLoop=1;jettySize=auto;html=1;exitX=1;exitY=0.5;exitDx=0;exitDy=0;fontSize=12;" parent="1" source="Mzsdl2vQxE1lh_2rMJa2-35" target="Mzsdl2vQxE1lh_2rMJa2-29" edge="1">
          <mxGeometry relative="1" as="geometry" />
        </mxCell>
        <mxCell id="Mzsdl2vQxE1lh_2rMJa2-35" value="" style="aspect=fixed;perimeter=ellipsePerimeter;html=1;align=center;shadow=0;dashed=0;spacingTop=3;image;image=img/lib/active_directory/key.svg;sketch=0;" parent="1" vertex="1">
          <mxGeometry x="760" y="440" width="50" height="37" as="geometry" />
        </mxCell>
        <mxCell id="Mzsdl2vQxE1lh_2rMJa2-38" value="Encrypt and decrypt the data using the same key" style="text;html=1;align=center;verticalAlign=middle;resizable=0;points=[];autosize=1;strokeColor=none;fillColor=none;fontSize=12;" parent="1" vertex="1">
          <mxGeometry x="658" y="487" width="280" height="20" as="geometry" />
        </mxCell>
        <mxCell id="Mzsdl2vQxE1lh_2rMJa2-39" value="Smaller cipher text compares to original plain text file." style="text;html=1;align=center;verticalAlign=middle;resizable=0;points=[];autosize=1;strokeColor=none;fillColor=none;fontSize=12;" parent="1" vertex="1">
          <mxGeometry x="622.5" y="590" width="310" height="20" as="geometry" />
        </mxCell>
        <mxCell id="Mzsdl2vQxE1lh_2rMJa2-40" value="Larger cipher text compares to original plain text file." style="text;html=1;align=center;verticalAlign=middle;resizable=0;points=[];autosize=1;strokeColor=none;fillColor=none;fontSize=12;" parent="1" vertex="1">
          <mxGeometry x="110" y="590" width="300" height="20" as="geometry" />
        </mxCell>
        <mxCell id="Mzsdl2vQxE1lh_2rMJa2-41" value="Used to transmit big data." style="text;html=1;align=center;verticalAlign=middle;resizable=0;points=[];autosize=1;strokeColor=none;fillColor=none;fontSize=12;" parent="1" vertex="1">
          <mxGeometry x="705" y="630" width="160" height="20" as="geometry" />
        </mxCell>
        <mxCell id="Mzsdl2vQxE1lh_2rMJa2-42" value="Used to transmit small data." style="text;html=1;align=center;verticalAlign=middle;resizable=0;points=[];autosize=1;strokeColor=none;fillColor=none;fontSize=12;" parent="1" vertex="1">
          <mxGeometry x="170" y="630" width="170" height="20" as="geometry" />
        </mxCell>
        <mxCell id="Mzsdl2vQxE1lh_2rMJa2-43" value="Asymmetric encryption requires high consumption of resources." style="text;html=1;align=center;verticalAlign=middle;resizable=0;points=[];autosize=1;strokeColor=none;fillColor=none;fontSize=12;" parent="1" vertex="1">
          <mxGeometry x="80" y="670" width="360" height="20" as="geometry" />
        </mxCell>
        <mxCell id="Mzsdl2vQxE1lh_2rMJa2-44" value="Symmetric key encryption works on low usage of resources." style="text;html=1;align=center;verticalAlign=middle;resizable=0;points=[];autosize=1;strokeColor=none;fillColor=none;fontSize=12;" parent="1" vertex="1">
          <mxGeometry x="607.5" y="670" width="340" height="20" as="geometry" />
        </mxCell>
        <mxCell id="Mzsdl2vQxE1lh_2rMJa2-45" value="Symmetric encryption is fast technique" style="text;html=1;align=center;verticalAlign=middle;resizable=0;points=[];autosize=1;strokeColor=none;fillColor=none;fontSize=12;" parent="1" vertex="1">
          <mxGeometry x="662.5" y="710" width="230" height="20" as="geometry" />
        </mxCell>
        <mxCell id="Mzsdl2vQxE1lh_2rMJa2-46" value="Asymmetric encryption is slower in terms of speed." style="text;whiteSpace=wrap;html=1;fontSize=12;" parent="1" vertex="1">
          <mxGeometry x="120" y="705" width="300" height="30" as="geometry" />
        </mxCell>
        <mxCell id="Mzsdl2vQxE1lh_2rMJa2-47" value="" style="endArrow=none;html=1;rounded=0;fontSize=12;strokeWidth=5;" parent="1" edge="1">
          <mxGeometry width="50" height="50" relative="1" as="geometry">
            <mxPoint x="520" y="780" as="sourcePoint" />
            <mxPoint x="520" y="10" as="targetPoint" />
          </mxGeometry>
        </mxCell>
        <mxCell id="Mzsdl2vQxE1lh_2rMJa2-48" value="" style="endArrow=none;html=1;rounded=0;fontSize=12;strokeWidth=5;" parent="1" edge="1">
          <mxGeometry width="50" height="50" relative="1" as="geometry">
            <mxPoint x="50" y="240" as="sourcePoint" />
            <mxPoint x="1000" y="240" as="targetPoint" />
          </mxGeometry>
        </mxCell>
        <mxCell id="Mzsdl2vQxE1lh_2rMJa2-49" value="" style="endArrow=none;html=1;rounded=0;fontSize=12;strokeWidth=5;" parent="1" edge="1">
          <mxGeometry width="50" height="50" relative="1" as="geometry">
            <mxPoint x="26" y="60" as="sourcePoint" />
            <mxPoint x="976" y="60" as="targetPoint" />
          </mxGeometry>
        </mxCell>
        <mxCell id="Mzsdl2vQxE1lh_2rMJa2-50" value="" style="endArrow=none;html=1;rounded=0;fontSize=12;strokeWidth=5;" parent="1" edge="1">
          <mxGeometry width="50" height="50" relative="1" as="geometry">
            <mxPoint x="26" y="540" as="sourcePoint" />
            <mxPoint x="976" y="540" as="targetPoint" />
          </mxGeometry>
        </mxCell>
        <mxCell id="CgwuojR1bHrYmX7aWqol-1" value="client" style="text;html=1;align=center;verticalAlign=middle;resizable=0;points=[];autosize=1;strokeColor=none;fillColor=none;fontSize=16;" parent="1" vertex="1">
          <mxGeometry x="25" y="410" width="50" height="20" as="geometry" />
        </mxCell>
        <mxCell id="CgwuojR1bHrYmX7aWqol-2" value="server" style="text;html=1;align=center;verticalAlign=middle;resizable=0;points=[];autosize=1;strokeColor=none;fillColor=none;fontSize=16;" parent="1" vertex="1">
          <mxGeometry x="390" y="410" width="60" height="20" as="geometry" />
        </mxCell>
        <mxCell id="CgwuojR1bHrYmX7aWqol-3" value="client" style="text;html=1;align=center;verticalAlign=middle;resizable=0;points=[];autosize=1;strokeColor=none;fillColor=none;fontSize=16;" parent="1" vertex="1">
          <mxGeometry x="555" y="410" width="50" height="20" as="geometry" />
        </mxCell>
        <mxCell id="CgwuojR1bHrYmX7aWqol-4" value="server" style="text;html=1;align=center;verticalAlign=middle;resizable=0;points=[];autosize=1;strokeColor=none;fillColor=none;fontSize=16;" parent="1" vertex="1">
          <mxGeometry x="916" y="400" width="60" height="20" as="geometry" />
        </mxCell>
        <mxCell id="4u510YD6Y3p60SGb7a_w-1" value="RSA" style="text;html=1;align=center;verticalAlign=middle;resizable=0;points=[];autosize=1;strokeColor=none;fillColor=none;fontSize=12;" parent="1" vertex="1">
          <mxGeometry x="400" y="20" width="40" height="20" as="geometry" />
        </mxCell>
        <mxCell id="4u510YD6Y3p60SGb7a_w-2" value="AES" style="text;html=1;align=center;verticalAlign=middle;resizable=0;points=[];autosize=1;strokeColor=none;fillColor=none;fontSize=12;" parent="1" vertex="1">
          <mxGeometry x="898" y="20" width="40" height="20" as="geometry" />
        </mxCell>
      </root>
    </mxGraphModel>
  </diagram>
  <diagram id="t3tcLVkCpCIOIXeq6tHs" name="Page-3">
    <mxGraphModel dx="1422" dy="775" grid="1" gridSize="10" guides="1" tooltips="1" connect="1" arrows="1" fold="1" page="1" pageScale="1" pageWidth="850" pageHeight="1100" math="0" shadow="0">
      <root>
        <mxCell id="0" />
        <mxCell id="1" parent="0" />
        <mxCell id="Aaxrm8IKO5T8YX4pbX_j-6" style="edgeStyle=orthogonalEdgeStyle;rounded=0;orthogonalLoop=1;jettySize=auto;html=1;fontSize=12;" parent="1" source="QdRMzlotLmlQQPObXNI1-3" target="QdRMzlotLmlQQPObXNI1-4" edge="1">
          <mxGeometry relative="1" as="geometry">
            <mxPoint x="180" y="355" as="targetPoint" />
            <Array as="points">
              <mxPoint x="390" y="350" />
              <mxPoint x="390" y="350" />
            </Array>
          </mxGeometry>
        </mxCell>
        <mxCell id="QdRMzlotLmlQQPObXNI1-3" value="Client" style="shape=umlLifeline;participant=umlActor;perimeter=lifelinePerimeter;whiteSpace=wrap;html=1;container=1;collapsible=0;recursiveResize=0;verticalAlign=bottom;spacingTop=36;outlineConnect=0;fontSize=16;labelPosition=center;verticalLabelPosition=top;align=center;" parent="1" vertex="1">
          <mxGeometry x="780" y="40" width="20" height="630" as="geometry" />
        </mxCell>
        <mxCell id="Aaxrm8IKO5T8YX4pbX_j-14" style="edgeStyle=orthogonalEdgeStyle;rounded=0;orthogonalLoop=1;jettySize=auto;html=1;fontSize=12;endArrow=classic;endFill=1;" parent="1" source="QdRMzlotLmlQQPObXNI1-4" target="QdRMzlotLmlQQPObXNI1-3" edge="1">
          <mxGeometry relative="1" as="geometry">
            <Array as="points">
              <mxPoint x="640" y="600" />
              <mxPoint x="640" y="600" />
            </Array>
          </mxGeometry>
        </mxCell>
        <mxCell id="QdRMzlotLmlQQPObXNI1-4" value="Server" style="shape=umlLifeline;participant=umlEntity;perimeter=lifelinePerimeter;whiteSpace=wrap;html=1;container=1;collapsible=0;recursiveResize=0;verticalAlign=bottom;spacingTop=36;outlineConnect=0;fontSize=16;labelPosition=center;verticalLabelPosition=top;align=center;" parent="1" vertex="1">
          <mxGeometry x="40" y="40" width="40" height="630" as="geometry" />
        </mxCell>
        <mxCell id="sabHmgOhICbMZxDspsIi-1" value="" style="aspect=fixed;perimeter=ellipsePerimeter;html=1;align=center;shadow=0;dashed=0;spacingTop=3;image;image=img/lib/active_directory/key.svg;imageBackground=#FF0000;" parent="1" vertex="1">
          <mxGeometry x="90" y="40" width="50" height="37" as="geometry" />
        </mxCell>
        <mxCell id="sabHmgOhICbMZxDspsIi-2" value="Server private Key : used to decrypt data" style="text;html=1;align=center;verticalAlign=middle;resizable=0;points=[];autosize=1;strokeColor=none;fillColor=none;fontSize=12;" parent="1" vertex="1">
          <mxGeometry x="135" y="48.5" width="230" height="20" as="geometry" />
        </mxCell>
        <mxCell id="EESmjBTNbwx0lxjEegnh-4" value="" style="aspect=fixed;perimeter=ellipsePerimeter;html=1;align=center;shadow=0;dashed=0;spacingTop=3;image;image=img/lib/active_directory/key.svg;imageBackground=#33FF33;" parent="1" vertex="1">
          <mxGeometry x="710" y="60" width="50" height="37" as="geometry" />
        </mxCell>
        <mxCell id="EESmjBTNbwx0lxjEegnh-5" value="Server Public Key : used to encrypt data" style="text;html=1;align=center;verticalAlign=middle;resizable=0;points=[];autosize=1;strokeColor=none;fillColor=none;fontSize=12;" parent="1" vertex="1">
          <mxGeometry x="470" y="68.5" width="230" height="20" as="geometry" />
        </mxCell>
        <mxCell id="TViWI3xJ7vZVxbtkFQ8e-1" value="" style="aspect=fixed;perimeter=ellipsePerimeter;html=1;align=center;shadow=0;dashed=0;spacingTop=3;image;image=img/lib/active_directory/key.svg;sketch=0;" parent="1" vertex="1">
          <mxGeometry x="660" y="128.5" width="50" height="37" as="geometry" />
        </mxCell>
        <mxCell id="i10AqXILIP_ncb_LzXJR-1" value="symmetric key" style="text;html=1;align=center;verticalAlign=middle;resizable=0;points=[];autosize=1;strokeColor=none;fillColor=none;fontSize=12;" parent="1" vertex="1">
          <mxGeometry x="550" y="137" width="90" height="20" as="geometry" />
        </mxCell>
        <mxCell id="Aaxrm8IKO5T8YX4pbX_j-1" value="" style="points=[[0,0.5,0],[0.24,0,0],[0.5,0.28,0],[0.995,0.475,0],[0.5,0.72,0],[0.24,1,0]];verticalLabelPosition=bottom;sketch=0;html=1;verticalAlign=top;aspect=fixed;align=center;pointerEvents=1;shape=mxgraph.cisco19.key;fillColor=#005073;strokeColor=none;fontSize=12;" parent="1" vertex="1">
          <mxGeometry x="710" y="200" width="50" height="22.5" as="geometry" />
        </mxCell>
        <mxCell id="Aaxrm8IKO5T8YX4pbX_j-2" value="" style="shape=image;html=1;verticalAlign=top;verticalLabelPosition=bottom;labelBackgroundColor=#ffffff;imageAspect=0;aspect=fixed;image=https://cdn4.iconfinder.com/data/icons/ionicons/512/icon-plus-round-128.png;fontSize=12;" parent="1" vertex="1">
          <mxGeometry x="610" y="100.5" width="28" height="28" as="geometry" />
        </mxCell>
        <mxCell id="Aaxrm8IKO5T8YX4pbX_j-3" value="" style="shape=image;html=1;verticalAlign=top;verticalLabelPosition=bottom;labelBackgroundColor=#ffffff;imageAspect=0;aspect=fixed;image=https://cdn2.iconfinder.com/data/icons/css-vol-2/24/math-equal-128.png;fontSize=12;" parent="1" vertex="1">
          <mxGeometry x="605" y="157" width="38" height="38" as="geometry" />
        </mxCell>
        <mxCell id="Aaxrm8IKO5T8YX4pbX_j-5" value="symmetric key encrypted using server public key" style="text;html=1;align=center;verticalAlign=middle;resizable=0;points=[];autosize=1;strokeColor=none;fillColor=none;fontSize=12;" parent="1" vertex="1">
          <mxGeometry x="430" y="200" width="280" height="20" as="geometry" />
        </mxCell>
        <mxCell id="Aaxrm8IKO5T8YX4pbX_j-8" value="&lt;div align=&quot;left&quot;&gt;&lt;b&gt;Headers&lt;/b&gt;: ClientId:&quot;New Key&quot;&lt;/div&gt;&lt;div align=&quot;left&quot;&gt;&lt;b&gt;Body&lt;/b&gt;: encrypted using Symmetric key&lt;/div&gt;&lt;div&gt;&lt;b&gt;Query &lt;/b&gt;string : encrypted using symmetric key&lt;br&gt;&lt;/div&gt;" style="rounded=1;whiteSpace=wrap;html=1;fontSize=12;" parent="1" vertex="1">
          <mxGeometry x="290" y="291" width="290" height="55" as="geometry" />
        </mxCell>
        <mxCell id="Aaxrm8IKO5T8YX4pbX_j-9" value="" style="points=[[0,0.5,0],[0.24,0,0],[0.5,0.28,0],[0.995,0.475,0],[0.5,0.72,0],[0.24,1,0]];verticalLabelPosition=bottom;sketch=0;html=1;verticalAlign=top;aspect=fixed;align=center;pointerEvents=1;shape=mxgraph.cisco19.key;fillColor=#005073;strokeColor=none;fontSize=12;" parent="1" vertex="1">
          <mxGeometry x="471" y="296" width="27.78" height="12.5" as="geometry" />
        </mxCell>
        <mxCell id="Aaxrm8IKO5T8YX4pbX_j-10" value="" style="aspect=fixed;perimeter=ellipsePerimeter;html=1;align=center;shadow=0;dashed=0;spacingTop=3;image;image=img/lib/active_directory/key.svg;sketch=0;" parent="1" vertex="1">
          <mxGeometry x="520.51" y="310" width="22.97" height="17" as="geometry" />
        </mxCell>
        <mxCell id="Aaxrm8IKO5T8YX4pbX_j-11" value="" style="aspect=fixed;perimeter=ellipsePerimeter;html=1;align=center;shadow=0;dashed=0;spacingTop=3;image;image=img/lib/active_directory/key.svg;sketch=0;" parent="1" vertex="1">
          <mxGeometry x="558.03" y="321" width="22.97" height="17" as="geometry" />
        </mxCell>
        <mxCell id="Aaxrm8IKO5T8YX4pbX_j-12" value="&lt;div&gt;1- Extract the ClientId header if exists&lt;/div&gt;&lt;div&gt;&amp;nbsp;&amp;nbsp;&amp;nbsp;&amp;nbsp; then decrypt it using server private key &lt;br&gt;&lt;/div&gt;&lt;div&gt;&amp;nbsp;&amp;nbsp;&amp;nbsp;&amp;nbsp;&amp;nbsp; to extract the symmetric key defined by the client&lt;/div&gt;&lt;div&gt;2- if the request has JWT authentication decrypt it using the symmetric key &lt;br&gt;&lt;/div&gt;&lt;div&gt;3- decrypt the request body and the query string if exist&lt;/div&gt;&lt;div&gt;&amp;nbsp; &amp;nbsp;&amp;nbsp; using the extracted symmetric key&lt;/div&gt;&lt;div&gt;4- encrypt the response using the symmetric key&lt;/div&gt;&lt;div&gt;5- if there is any JWT authentication also encrypt it using&lt;/div&gt;&lt;div&gt;&amp;nbsp; &amp;nbsp;&amp;nbsp; the symmetric key to be irreversible&lt;br&gt;&lt;/div&gt;&lt;div&gt;&lt;br&gt;&lt;/div&gt;" style="text;html=1;align=left;verticalAlign=middle;resizable=0;points=[];autosize=1;strokeColor=none;fillColor=none;fontSize=12;" parent="1" vertex="1">
          <mxGeometry x="70" y="380" width="420" height="150" as="geometry" />
        </mxCell>
        <mxCell id="Aaxrm8IKO5T8YX4pbX_j-15" value="&lt;b&gt;response&lt;/b&gt;: encrypted using the symmetric key" style="rounded=1;whiteSpace=wrap;html=1;fontSize=12;align=left;" parent="1" vertex="1">
          <mxGeometry x="290" y="540" width="290" height="55" as="geometry" />
        </mxCell>
        <mxCell id="Aaxrm8IKO5T8YX4pbX_j-17" value="" style="aspect=fixed;perimeter=ellipsePerimeter;html=1;align=center;shadow=0;dashed=0;spacingTop=3;image;image=img/lib/active_directory/key.svg;sketch=0;" parent="1" vertex="1">
          <mxGeometry x="550" y="559" width="22.97" height="17" as="geometry" />
        </mxCell>
      </root>
    </mxGraphModel>
  </diagram>
</mxfile>
